<svg width="74" height="68" viewBox="0 0 74 68" fill="none" xmlns="http://www.w3.org/2000/svg">
<ellipse cx="37.132" cy="33.9201" rx="35" ry="14.8046" transform="rotate(-39.522 37.132 33.9201)" fill="#4B95EB"/>
<path d="M21.5468 35.768C21.7708 35.128 21.9788 34.376 22.1708 33.512C22.3948 32.648 22.5548 31.8 22.6508 30.968C22.3308 31.288 22.0108 31.56 21.6908 31.784C21.3708 32.008 21.0348 32.104 20.6828 32.072C20.3948 32.04 20.0908 31.96 19.7708 31.832C19.4828 31.672 19.1948 31.496 18.9068 31.304C18.6188 31.08 18.3628 30.84 18.1388 30.584C17.9468 30.296 17.8188 30.008 17.7548 29.72L17.6588 29.384L17.8508 29.048C18.6188 27.96 19.5148 26.888 20.5388 25.832C21.5948 24.744 22.7308 23.784 23.9468 22.952C25.1948 22.12 26.4908 21.464 27.8348 20.984C29.2108 20.504 30.6188 20.312 32.0588 20.408C33.1788 20.472 34.2188 20.712 35.1788 21.128C36.0108 21.48 36.7468 21.944 37.3868 22.52C38.0268 23.096 38.5068 23.816 38.8268 24.68C39.0828 25.416 39.1948 26.168 39.1628 26.936C39.1308 27.704 38.9868 28.456 38.7308 29.192C38.5068 29.928 38.2028 30.632 37.8188 31.304C37.4348 31.976 37.0188 32.6 36.5708 33.176C35.2268 34.904 33.6588 36.392 31.8668 37.64C30.0748 38.888 28.1228 39.784 26.0108 40.328H25.9628C25.8668 40.328 25.8028 40.344 25.7708 40.376C25.7068 40.44 25.6428 40.536 25.5788 40.664C25.5468 40.792 25.5148 40.888 25.4828 40.952C25.2268 41.72 24.9868 42.504 24.7628 43.304C24.5388 44.072 24.3308 44.856 24.1388 45.656C24.0108 46.2 23.7868 46.632 23.4668 46.952C23.1788 47.272 22.7308 47.4 22.1228 47.336C21.7068 47.272 21.3228 47.176 20.9708 47.048C20.6188 46.92 20.3148 46.68 20.0588 46.328C19.7708 45.976 19.5948 45.56 19.5308 45.08C19.4988 44.568 19.4988 44.056 19.5308 43.544C19.5948 43 19.6908 42.472 19.8188 41.96C19.9468 41.448 20.0588 41 20.1548 40.616C20.1868 40.552 20.2028 40.488 20.2028 40.424C20.2028 40.36 20.2188 40.296 20.2508 40.232C20.2828 40.104 20.2508 39.96 20.1548 39.8C20.0268 39.64 19.8988 39.496 19.7708 39.368C19.6748 39.208 19.5788 39.016 19.4828 38.792C19.4188 38.632 19.3867 38.392 19.3867 38.072C19.4188 37.656 19.5308 37.336 19.7228 37.112C19.9468 36.888 20.1708 36.712 20.3948 36.584C20.6508 36.424 20.8908 36.296 21.1148 36.2C21.3388 36.072 21.4828 35.928 21.5468 35.768ZM26.9708 34.952C27.3868 34.856 27.8188 34.68 28.2668 34.424C28.7148 34.136 29.1468 33.832 29.5628 33.512C29.9788 33.192 30.3468 32.856 30.6668 32.504C31.0188 32.152 31.3228 31.832 31.5788 31.544C31.8668 31.224 32.1548 30.84 32.4428 30.392C32.7628 29.944 33.0508 29.48 33.3068 29C33.5628 28.52 33.7708 28.04 33.9308 27.56C34.1228 27.08 34.2348 26.616 34.2668 26.168C34.3308 25.816 34.2668 25.544 34.0748 25.352C33.8828 25.128 33.6268 24.984 33.3068 24.92C32.9868 24.856 32.6988 24.808 32.4428 24.776C31.3548 24.712 30.3148 24.888 29.3228 25.304C28.3308 25.72 27.4348 26.28 26.6348 26.984C26.6988 27.048 26.7628 27.112 26.8268 27.176C26.9228 27.208 27.0188 27.256 27.1148 27.32C27.4668 27.64 27.8028 28.056 28.1228 28.568C28.4748 29.048 28.6188 29.528 28.5547 30.008C28.5228 30.456 28.4108 30.952 28.2188 31.496C28.0268 32.04 27.8508 32.536 27.6908 32.984C27.5948 33.304 27.4828 33.608 27.3548 33.896C27.2588 34.184 27.1628 34.488 27.0668 34.808C27.0348 34.84 27.0188 34.872 27.0188 34.904C27.0188 34.904 27.0028 34.92 26.9708 34.952ZM56.0546 26.168C55.7986 26.328 55.5746 26.376 55.3826 26.312C55.1906 26.216 54.9666 26.168 54.7106 26.168C53.9746 26.168 53.1586 26.296 52.2626 26.552C51.3666 26.808 50.5666 27.08 49.8626 27.368C49.5426 27.496 49.1586 27.672 48.7106 27.896C48.2946 28.12 47.8786 28.376 47.4626 28.664C47.0466 28.92 46.6626 29.224 46.3106 29.576C45.9906 29.896 45.7666 30.232 45.6386 30.584L45.5906 30.632V30.68C45.5266 30.84 45.4786 31 45.4466 31.16C45.4146 31.288 45.4306 31.432 45.4946 31.592C45.5586 31.848 45.7346 32.104 46.0226 32.36C46.3426 32.616 46.6146 32.824 46.8386 32.984C47.2866 33.304 47.7506 33.608 48.2306 33.896C48.7426 34.152 49.2226 34.424 49.6706 34.712C50.2466 35.096 50.7746 35.512 51.2546 35.96C51.7666 36.408 52.1986 36.936 52.5506 37.544C53.1906 38.632 53.4306 39.736 53.2706 40.856C53.1426 41.944 52.7266 43 52.0226 44.024C51.3186 45.048 50.3426 46.008 49.0946 46.904C47.8786 47.8 46.7266 48.552 45.6386 49.16C44.6466 49.704 43.5586 50.2 42.3746 50.648C41.1906 51.128 40.0386 51.432 38.9186 51.56C38.0226 51.656 37.2706 51.496 36.6626 51.08C36.0226 50.696 35.7346 50.008 35.7986 49.016C35.7986 48.504 36.0066 48.136 36.4226 47.912C36.6466 47.784 36.9346 47.752 37.2866 47.816H37.3826C38.1186 47.72 39.0146 47.464 40.0706 47.048C41.1266 46.632 42.1666 46.12 43.1906 45.512C44.2466 44.904 45.2226 44.264 46.1186 43.592C47.0146 42.888 47.6546 42.216 48.0386 41.576C48.4866 40.84 48.5826 40.184 48.3266 39.608C48.0706 39 47.5746 38.472 46.8386 38.024C46.4546 37.768 46.0546 37.528 45.6386 37.304C45.2546 37.048 44.8706 36.776 44.4866 36.488C43.9746 36.136 43.4786 35.752 42.9986 35.336C42.5186 34.888 42.1026 34.424 41.7506 33.944C41.4306 33.432 41.1906 32.888 41.0306 32.312C40.8706 31.704 40.8386 31.064 40.9346 30.392C41.0946 29.24 41.6066 28.136 42.4706 27.08C43.3346 26.024 44.3586 25.096 45.5426 24.296C46.7586 23.496 48.0226 22.872 49.3346 22.424C50.6786 21.944 51.8946 21.704 52.9826 21.704C53.8146 21.704 54.4866 21.912 54.9986 22.328C55.5106 22.744 55.8786 23.224 56.1026 23.768C56.3586 24.28 56.4706 24.776 56.4386 25.256C56.4066 25.736 56.2786 26.04 56.0546 26.168Z" fill="white"/>
</svg>
